<?xml version="1.0" encoding="utf-8"?><svg version="1.1" id="Layer_1" xmlns="http://www.w3.org/2000/svg" x="0" y="0" width="540" height="84.594" xml:space="preserve"><title>Emory Center for Digital Scholarship - Office of Information Technology - Emory University</title><style>.st0{fill:#fff}</style><path class="st0" d="M249.871 2.76h9.22v2.563h-6.005v4.672h5.678v2.563h-5.678v5.175h6.255v2.563h-9.471V2.76zM261.731 9.468c0-.469-.008-.879-.025-1.231a9.916 9.916 0 00-.076-.879h3.115c.017.335.038.674.063 1.017.025.343.038.683.038 1.017h.05c.117-.251.272-.511.465-.779s.418-.506.679-.716c.259-.209.565-.385.917-.528a3.203 3.203 0 011.206-.213c.553 0 1.013.075 1.381.226.368.151.679.331.929.54.252.21.448.436.591.678.142.243.264.449.364.616.151-.218.327-.448.528-.691a3.883 3.883 0 011.671-1.168c.36-.134.782-.201 1.268-.201.704 0 1.294.122 1.771.364.478.243.858.586 1.143 1.03.284.444.49.984.616 1.62.126.637.188 1.348.188 2.136v7.989h-3.115v-8.164c0-.804-.13-1.407-.389-1.809-.26-.402-.682-.603-1.268-.603a1.79 1.79 0 00-.917.226c-.26.151-.478.352-.653.603a2.85 2.85 0 00-.403.879 3.87 3.87 0 00-.138 1.03v7.838h-3.115v-8.164c0-.804-.13-1.407-.389-1.809-.26-.402-.683-.603-1.269-.603-.352 0-.657.075-.917.226-.26.151-.478.352-.654.603-.176.251-.31.545-.402.879a3.83 3.83 0 00-.138 1.03v7.838h-3.115V9.468zM280.624 13.814c0-1.323.172-2.412.516-3.266.343-.854.792-1.532 1.344-2.035a4.713 4.713 0 011.846-1.055 7.01 7.01 0 011.997-.301c.654 0 1.319.1 1.998.301a4.62 4.62 0 011.834 1.055c.543.503.988 1.181 1.331 2.035.343.854.515 1.943.515 3.266 0 1.357-.172 2.466-.515 3.329s-.788 1.545-1.331 2.047a4.37 4.37 0 01-1.834 1.03 7.613 7.613 0 01-1.998.276 7.611 7.611 0 01-1.997-.276 4.455 4.455 0 01-1.846-1.03c-.553-.502-1.002-1.185-1.344-2.047-.344-.863-.516-1.972-.516-3.329zm3.216 0c0 .536.033 1.072.1 1.608s.197 1.017.39 1.445c.193.427.448.77.767 1.03.318.26.729.389 1.23.389.503 0 .913-.13 1.231-.389.318-.26.569-.603.754-1.03.184-.427.31-.908.377-1.445a12.953 12.953 0 000-3.216 5.132 5.132 0 00-.377-1.432 2.676 2.676 0 00-.754-1.017c-.318-.26-.729-.389-1.231-.389-.502 0-.913.13-1.23.389-.318.26-.574.599-.767 1.017a4.841 4.841 0 00-.39 1.432 13.16 13.16 0 00-.1 1.608zM294.324 9.493c0-.402-.008-.787-.025-1.155a14.397 14.397 0 00-.075-.98h2.813c.017.386.038.779.063 1.181s.038.796.038 1.18h.05c.1-.251.234-.527.402-.829.168-.302.385-.578.654-.829a3.75 3.75 0 01.954-.641c.368-.176.795-.264 1.281-.264.1 0 .192.008.276.025l.252.05v2.914a3.272 3.272 0 00-.879-.125c-.318 0-.637.055-.954.163a2.413 2.413 0 00-.867.527c-.259.243-.468.57-.628.98-.159.411-.239.917-.239 1.52v7.084h-3.115V9.493zM308.235 17.13h.05l2.488-9.772h3.014l-3.995 13.063-.729 2.337c-.134.452-.305.867-.515 1.243s-.461.704-.754.98a3.25 3.25 0 01-1.042.653c-.402.159-.863.238-1.382.238a5.87 5.87 0 01-1.984-.326l.176-2.387c.184.067.368.125.553.176.184.05.393.075.628.075.468.016.825-.126 1.067-.427s.465-.787.666-1.457l.227-1.105-4.297-13.063h3.216l2.613 9.772zM333.118 19.919c-.335.184-.85.335-1.544.452-.695.117-1.445.176-2.249.176-1.341 0-2.513-.231-3.517-.691a7.042 7.042 0 01-2.513-1.896c-.669-.804-1.177-1.754-1.519-2.851-.343-1.097-.516-2.29-.516-3.58 0-1.272.172-2.462.516-3.567.343-1.105.845-2.06 1.507-2.864a6.919 6.919 0 012.487-1.896c.996-.461 2.148-.691 3.454-.691.905 0 1.696.088 2.375.264.678.176 1.184.331 1.519.465l-.176 2.889a32.841 32.841 0 00-1.293-.603c-.528-.234-1.202-.352-2.022-.352-.67 0-1.303.118-1.897.352a4.08 4.08 0 00-1.57 1.118c-.453.511-.813 1.168-1.08 1.972-.268.804-.402 1.775-.402 2.914 0 1.139.133 2.11.402 2.914.268.804.628 1.461 1.08 1.972a4.07 4.07 0 001.57 1.118 5.111 5.111 0 001.897.352c.787 0 1.444-.084 1.972-.251a4.642 4.642 0 001.343-.653l.176 2.937zM344.573 19.667a23.88 23.88 0 01-1.482.515c-.654.209-1.449.314-2.387.314-1.039 0-1.934-.176-2.688-.528-.755-.351-1.374-.82-1.86-1.407a5.76 5.76 0 01-1.079-2.06 8.647 8.647 0 01-.352-2.487c0-.971.121-1.871.364-2.7s.594-1.553 1.055-2.173a5.007 5.007 0 011.683-1.457c.661-.351 1.403-.527 2.224-.527.703 0 1.365.113 1.984.339a4.056 4.056 0 011.646 1.143c.477.536.854 1.243 1.13 2.123.276.879.415 1.981.415 3.304v.603h-7.487c0 1.105.247 1.972.742 2.6.493.628 1.343.942 2.55.942.954 0 1.687-.113 2.198-.339.511-.226.908-.448 1.193-.666l.151 2.461zm-2.362-6.958c0-2.295-.72-3.442-2.16-3.442-.403 0-.75.1-1.043.301a2.509 2.509 0 00-.729.779 3.383 3.383 0 00-.414 1.105 6.378 6.378 0 00-.126 1.256h4.472zM347.364 9.493c0-.402-.009-.787-.026-1.155a14.397 14.397 0 00-.075-.98h2.914c.017.335.038.666.063.992.025.326.037.657.037.992h.051c.117-.201.264-.427.44-.678.175-.251.397-.49.666-.716a3.51 3.51 0 01.967-.565c.377-.15.833-.226 1.369-.226.737 0 1.348.125 1.834.377s.875.599 1.168 1.042c.293.444.503.954.628 1.533a8.65 8.65 0 01.189 1.846v8.34h-3.115v-7.763c0-1.005-.138-1.725-.415-2.16-.276-.436-.732-.654-1.369-.654-.402 0-.745.08-1.029.239a1.914 1.914 0 00-.691.653 2.836 2.836 0 00-.377.967 5.834 5.834 0 00-.114 1.18v7.537h-3.114V9.493zM361.362 4.695l3.115-.954v3.617h2.588v2.286h-2.588v6.707c0 .704.121 1.177.364 1.42.243.243.591.364 1.042.364.285 0 .524-.029.717-.088a2.37 2.37 0 00.465-.188v2.211a4.147 4.147 0 01-.867.301c-.343.083-.75.125-1.219.125-1.155 0-2.047-.289-2.675-.867-.628-.578-.942-1.545-.942-2.902V9.644h-2.06V7.358h2.06V4.695zM378.406 19.667a23.88 23.88 0 01-1.482.515c-.654.209-1.449.314-2.387.314-1.039 0-1.934-.176-2.688-.528-.755-.351-1.374-.82-1.86-1.407a5.76 5.76 0 01-1.079-2.06 8.647 8.647 0 01-.352-2.487c0-.971.121-1.871.364-2.7s.594-1.553 1.055-2.173a5.007 5.007 0 011.683-1.457c.661-.351 1.403-.527 2.224-.527.703 0 1.365.113 1.984.339a4.056 4.056 0 011.646 1.143c.477.536.854 1.243 1.13 2.123.276.879.415 1.981.415 3.304v.603h-7.487c0 1.105.247 1.972.742 2.6.493.628 1.343.942 2.55.942.954 0 1.687-.113 2.198-.339.511-.226.908-.448 1.193-.666l.151 2.461zm-2.362-6.958c0-2.295-.72-3.442-2.16-3.442-.403 0-.75.1-1.043.301a2.509 2.509 0 00-.729.779 3.383 3.383 0 00-.414 1.105 6.378 6.378 0 00-.126 1.256h4.472zM381.365 9.493c0-.402-.008-.787-.025-1.155a14.397 14.397 0 00-.075-.98h2.813c.017.386.038.779.063 1.181s.037.796.037 1.18h.051c.1-.251.234-.527.402-.829.167-.302.385-.578.653-.829s.586-.465.955-.641c.368-.176.795-.264 1.28-.264.101 0 .193.008.277.025l.251.05v2.914a3.26 3.26 0 00-.879-.125c-.318 0-.637.055-.955.163a2.413 2.413 0 00-.867.527c-.259.243-.468.57-.628.98-.159.411-.239.917-.239 1.52v7.084h-3.115V9.493zM396.795 9.644h-2.161V7.358h2.161V4.72c0-.468.058-.917.176-1.344.117-.427.322-.804.616-1.13.293-.327.679-.591 1.155-.792.478-.201 1.067-.301 1.771-.301.418 0 .82.034 1.206.1.385.067.729.134 1.029.201l-.125 2.261c-.185-.05-.377-.096-.579-.138a3.188 3.188 0 00-.653-.063c-.453 0-.813.147-1.08.44-.268.293-.402.683-.402 1.168v2.236h2.362v2.286h-2.362v10.652h-3.115V9.644zM403.46 13.814c0-1.323.171-2.412.515-3.266.343-.854.792-1.532 1.344-2.035a4.72 4.72 0 011.846-1.055 7.011 7.011 0 011.998-.301c.653 0 1.318.1 1.997.301.679.201 1.29.553 1.834 1.055.543.503.988 1.181 1.331 2.035.343.854.515 1.943.515 3.266 0 1.357-.171 2.466-.515 3.329-.343.863-.788 1.545-1.331 2.047a4.359 4.359 0 01-1.834 1.03 7.611 7.611 0 01-1.997.276 7.613 7.613 0 01-1.998-.276 4.461 4.461 0 01-1.846-1.03c-.553-.502-1.001-1.185-1.344-2.047-.344-.863-.515-1.972-.515-3.329zm3.215 0c0 .536.033 1.072.101 1.608.067.536.196 1.017.389 1.445.193.427.448.77.767 1.03.318.26.729.389 1.231.389.502 0 .912-.13 1.23-.389.318-.26.569-.603.754-1.03.184-.427.31-.908.377-1.445a12.953 12.953 0 000-3.216 5.132 5.132 0 00-.377-1.432 2.666 2.666 0 00-.754-1.017c-.318-.26-.729-.389-1.23-.389-.503 0-.914.13-1.231.389-.318.26-.574.599-.767 1.017a4.841 4.841 0 00-.389 1.432 12.965 12.965 0 00-.101 1.608zM417.059 9.493c0-.402-.008-.787-.025-1.155a14.397 14.397 0 00-.075-.98h2.813c.017.386.038.779.063 1.181s.037.796.037 1.18h.051c.1-.251.234-.527.402-.829.167-.302.385-.578.653-.829s.586-.465.955-.641c.368-.176.795-.264 1.28-.264.101 0 .193.008.277.025l.251.05v2.914a3.26 3.26 0 00-.879-.125c-.318 0-.637.055-.955.163a2.413 2.413 0 00-.867.527c-.259.243-.468.57-.628.98-.159.411-.239.917-.239 1.52v7.084h-3.115V9.493zM249.72 29.778h4.572c2.763 0 4.852.732 6.268 2.198 1.415 1.466 2.123 3.656 2.123 6.569 0 1.474-.209 2.76-.628 3.857-.419 1.097-1.001 2.01-1.746 2.738a7.106 7.106 0 01-2.651 1.633c-1.022.361-2.144.541-3.366.541h-4.572V29.778zm3.215 15.073h1.08c.904 0 1.688-.146 2.349-.439a4.153 4.153 0 001.633-1.269c.428-.553.745-1.218.954-1.997.209-.779.315-1.646.315-2.601s-.106-1.821-.315-2.6c-.209-.78-.527-1.445-.954-1.998a4.142 4.142 0 00-1.633-1.268c-.661-.293-1.444-.44-2.349-.44h-1.08v12.612zM265.151 28.874h3.216v3.065h-3.216v-3.065zm.05 5.502h3.115v12.938h-3.115V34.376zM271.693 49.323c.368.201.892.435 1.57.703.679.268 1.428.403 2.249.403.737 0 1.327-.118 1.771-.352a2.692 2.692 0 001.029-.917c.243-.377.406-.812.491-1.306.083-.494.125-.992.125-1.494v-1.231h-.05a8.727 8.727 0 01-.465.767 3.128 3.128 0 01-.666.703c-.268.21-.591.381-.967.516-.377.134-.817.201-1.319.201a4.66 4.66 0 01-1.469-.264c-.528-.176-1.017-.503-1.469-.979-.453-.478-.829-1.135-1.131-1.973-.301-.837-.452-1.909-.452-3.215 0-.888.083-1.738.251-2.55.168-.813.44-1.524.817-2.136a4.48 4.48 0 011.445-1.469c.586-.368 1.306-.553 2.16-.553.469 0 .88.062 1.231.188.352.126.661.289.929.49s.503.436.704.704c.201.268.385.544.553.829h.1c0-.335.013-.67.038-1.005.025-.335.046-.669.063-1.004h2.813c-.033.335-.059.674-.075 1.017-.018.343-.025.682-.025 1.017v9.546c0 1.005-.088 1.935-.264 2.789-.176.854-.491 1.586-.942 2.198-.452.611-1.064 1.089-1.834 1.432-.77.343-1.751.515-2.939.515-1.039 0-1.943-.101-2.713-.302a24.72 24.72 0 01-1.733-.502l.174-2.766zm2.461-8.617c0 .754.055 1.403.164 1.947.108.544.259.992.452 1.344s.41.611.654.779c.243.168.498.251.766.251.989 0 1.691-.355 2.111-1.067.418-.712.628-1.804.628-3.278 0-1.356-.23-2.39-.691-3.102-.461-.712-1.067-1.059-1.821-1.043-.821.018-1.403.386-1.746 1.105-.344.719-.517 1.741-.517 3.064zM285.064 28.874h3.216v3.065h-3.216v-3.065zm.05 5.502h3.115v12.938h-3.115V34.376zM292.513 31.712l3.114-.954v3.618h2.588v2.286h-2.588v6.707c0 .704.122 1.178.365 1.42s.591.364 1.042.364c.285 0 .523-.029.716-.088a2.26 2.26 0 00.465-.188v2.211a4.106 4.106 0 01-.867.301 5.23 5.23 0 01-1.218.126c-1.155 0-2.047-.289-2.676-.867-.628-.578-.941-1.545-.941-2.902v-7.084h-2.061v-2.286h2.061v-2.664zM301.432 35.129c.435-.201.98-.41 1.633-.629.654-.218 1.474-.326 2.462-.326 1.005 0 1.83.117 2.475.352.645.234 1.147.578 1.507 1.029.36.453.612 1.001.755 1.646.142.644.213 1.368.213 2.173v5.652c0 .469.021.904.063 1.306.042.403.08.729.113.98h-2.813a3.18 3.18 0 01-.151-.829 16.497 16.497 0 01-.025-.929h-.05a5.81 5.81 0 01-1.407 1.382c-.553.385-1.29.578-2.211.578-.503 0-.988-.084-1.457-.252a3.518 3.518 0 01-1.23-.741 3.764 3.764 0 01-.854-1.193c-.218-.468-.327-1.004-.327-1.608 0-.87.171-1.59.515-2.16a3.752 3.752 0 011.42-1.357c.603-.334 1.318-.565 2.148-.691a18.195 18.195 0 012.725-.188h.628v-.478a3.48 3.48 0 00-.125-.929 2.046 2.046 0 00-.415-.792 2.067 2.067 0 00-.741-.54c-.302-.134-.679-.201-1.131-.201-.385 0-.757.042-1.117.125-.36.084-.695.189-1.005.314-.31.126-.586.264-.829.415a7.14 7.14 0 00-.591.402l-.178-2.511zm6.13 5.853h-.276c-1.341 0-2.383.172-3.127.516-.746.343-1.118.984-1.118 1.922 0 .586.18 1.064.54 1.431.36.369.842.553 1.445.553.938 0 1.595-.326 1.972-.979s.565-1.557.565-2.713v-.73zM313.56 28.472h3.115v18.841h-3.115V28.472zM327.426 43.921c.318.201.804.431 1.457.692.653.259 1.406.389 2.261.389.352 0 .687-.05 1.004-.151.318-.1.604-.255.854-.465a2.17 2.17 0 00.591-.791c.142-.318.213-.695.213-1.13 0-.318-.046-.594-.138-.829a2.026 2.026 0 00-.427-.654 3.995 3.995 0 00-.717-.578 19.92 19.92 0 00-1.004-.603l-1.633-.904c-.871-.485-1.566-1.089-2.085-1.809-.519-.719-.779-1.649-.779-2.788 0-.787.15-1.478.452-2.072a4.504 4.504 0 011.206-1.495c.502-.402 1.088-.704 1.758-.904s1.373-.302 2.111-.302c.938 0 1.72.084 2.349.252.628.168 1.067.293 1.318.377l-.15 2.688c-.386-.15-.842-.314-1.369-.49-.528-.176-1.168-.264-1.922-.264-.805 0-1.411.193-1.822.578-.41.386-.615.879-.615 1.482 0 .336.05.62.15.854.101.235.239.44.415.616s.373.335.591.478c.218.142.452.281.704.414l1.884 1.055c.518.285.967.578 1.344.879.377.301.691.632.942.992.252.36.44.77.566 1.23.125.461.188 1.001.188 1.621 0 .888-.15 1.662-.452 2.324a4.546 4.546 0 01-1.243 1.645 5.323 5.323 0 01-1.859.979 7.912 7.912 0 01-2.324.327c-1.792 0-3.124-.259-3.995-.779l.176-2.864zM347.999 46.987a9.734 9.734 0 01-1.331.364 8.455 8.455 0 01-1.733.164c-1.072 0-1.99-.176-2.751-.528a5.214 5.214 0 01-1.884-1.432 5.878 5.878 0 01-1.092-2.11c-.235-.804-.352-1.666-.352-2.588s.121-1.788.364-2.601a5.82 5.82 0 011.13-2.123c.511-.603 1.16-1.08 1.947-1.432.787-.351 1.725-.527 2.814-.527.485 0 .988.058 1.507.176.518.117.92.234 1.205.351l-.176 2.463a15.589 15.589 0 00-.979-.415 3.323 3.323 0 00-1.206-.214c-1.189 0-2.052.377-2.588 1.131s-.804 1.826-.804 3.215c0 .603.071 1.165.214 1.683.142.519.36.971.653 1.356.293.386.662.687 1.105.904.443.218.967.327 1.57.327.385 0 .795-.071 1.231-.214.435-.142.762-.28.979-.414l.177 2.464zM350.373 28.472h3.114v7.562h.076c.133-.201.289-.41.465-.629.176-.218.385-.418.628-.603s.536-.335.879-.452c.343-.118.757-.176 1.243-.176.737 0 1.348.125 1.834.377.486.251.875.599 1.168 1.042.293.443.503.954.628 1.532.126.578.189 1.193.189 1.847v8.34h-3.115v-7.763c0-1.005-.138-1.725-.415-2.161-.276-.435-.732-.654-1.369-.654-.402 0-.745.081-1.029.239a1.909 1.909 0 00-.691.654 2.836 2.836 0 00-.377.967 5.834 5.834 0 00-.114 1.18v7.537h-3.114V28.472zM362.794 40.832c0-1.323.171-2.412.515-3.266.343-.854.792-1.532 1.344-2.035a4.708 4.708 0 011.846-1.055 7.011 7.011 0 011.998-.301c.653 0 1.318.1 1.997.301s1.29.553 1.834 1.055c.543.503.988 1.18 1.331 2.035.343.854.515 1.943.515 3.266 0 1.356-.171 2.466-.515 3.328-.343.863-.788 1.545-1.331 2.048a4.357 4.357 0 01-1.834 1.029 7.614 7.614 0 01-1.997.277 7.615 7.615 0 01-1.998-.277 4.47 4.47 0 01-1.846-1.029c-.553-.503-1.001-1.185-1.344-2.048-.344-.862-.515-1.972-.515-3.328zm3.215 0c0 .536.033 1.072.101 1.607.067.537.196 1.017.389 1.445.193.427.448.77.767 1.029.318.26.729.39 1.231.39.502 0 .912-.13 1.23-.39a2.67 2.67 0 00.754-1.029c.184-.428.31-.908.377-1.445a12.925 12.925 0 000-3.215 5.132 5.132 0 00-.377-1.432 2.674 2.674 0 00-.754-1.017c-.318-.259-.729-.389-1.23-.389-.503 0-.914.13-1.231.389-.318.26-.574.599-.767 1.017a4.841 4.841 0 00-.389 1.432 12.763 12.763 0 00-.101 1.608zM376.525 28.472h3.115v18.841h-3.115V28.472zM383.406 35.129c.435-.201.979-.41 1.633-.629.653-.218 1.474-.326 2.462-.326 1.005 0 1.829.117 2.475.352.644.234 1.147.578 1.507 1.029.36.453.611 1.001.754 1.646.143.644.214 1.368.214 2.173v5.652c0 .469.02.904.063 1.306.042.403.079.729.113.98h-2.813a3.18 3.18 0 01-.151-.829 16.497 16.497 0 01-.025-.929h-.051a5.806 5.806 0 01-1.406 1.382c-.553.385-1.29.578-2.211.578-.503 0-.989-.084-1.457-.252a3.522 3.522 0 01-1.231-.741 3.78 3.78 0 01-.854-1.193c-.218-.468-.327-1.004-.327-1.608 0-.87.171-1.59.515-2.16a3.756 3.756 0 011.419-1.357c.604-.334 1.319-.565 2.149-.691a18.195 18.195 0 012.725-.188h.628v-.478a3.48 3.48 0 00-.125-.929 2.046 2.046 0 00-.415-.792 2.063 2.063 0 00-.742-.54c-.301-.134-.678-.201-1.13-.201-.385 0-.758.042-1.117.125a6.806 6.806 0 00-1.005.314c-.31.126-.586.264-.829.415a7.14 7.14 0 00-.591.402l-.177-2.511zm6.13 5.853h-.276c-1.341 0-2.383.172-3.128.516s-1.117.984-1.117 1.922c0 .586.18 1.064.54 1.431.36.369.842.553 1.444.553.938 0 1.596-.326 1.973-.979s.565-1.557.565-2.713v-.73zM395.328 36.511c0-.402-.008-.787-.025-1.155s-.042-.694-.075-.979h2.813c.017.385.038.779.063 1.18s.037.796.037 1.18h.051c.1-.251.234-.527.402-.829.167-.302.385-.578.653-.829.268-.252.586-.465.955-.641.368-.176.795-.264 1.28-.264.101 0 .193.008.277.025l.251.05v2.914a3.263 3.263 0 00-.879-.126c-.318 0-.637.055-.955.164a2.385 2.385 0 00-.867.527c-.259.243-.468.57-.628.98-.159.41-.239.917-.239 1.519v7.085h-3.115V36.511zM403.634 44.298c.117.051.284.122.502.214.218.093.469.189.755.289.284.101.593.184.929.252.334.067.686.1 1.054.1.569 0 1.047-.088 1.432-.264.385-.176.578-.515.578-1.017 0-.251-.088-.503-.264-.754-.176-.251-.549-.544-1.117-.879l-1.281-.754a25.504 25.504 0 01-.98-.616 5.175 5.175 0 01-.879-.729 3.154 3.154 0 01-.641-.979c-.159-.377-.239-.817-.239-1.319 0-.452.105-.895.314-1.331a3.7 3.7 0 01.892-1.168 4.681 4.681 0 011.407-.842c.553-.218 1.172-.326 1.859-.326.837 0 1.549.075 2.136.226.586.151.954.251 1.105.301l-.176 2.413a12.003 12.003 0 00-1.231-.403 5.834 5.834 0 00-1.507-.176c-.637 0-1.093.114-1.369.34-.277.226-.415.531-.415.917 0 .352.13.645.39.879.259.235.616.494 1.067.779l1.532.979c.403.252.754.494 1.055.729.302.235.553.478.754.729.201.252.352.524.453.817.1.293.15.624.15.992 0 .603-.121 1.14-.364 1.608a3.535 3.535 0 01-1.004 1.193 4.704 4.704 0 01-1.52.754 6.711 6.711 0 01-1.935.264c-.804 0-1.519-.071-2.148-.214-.628-.142-1.109-.281-1.444-.415l.15-2.589zM414.086 28.472h3.114v7.562h.076c.133-.201.289-.41.465-.629.176-.218.385-.418.628-.603s.536-.335.879-.452c.343-.118.757-.176 1.243-.176.737 0 1.348.125 1.834.377.486.251.875.599 1.168 1.042.293.443.503.954.628 1.532.126.578.189 1.193.189 1.847v8.34h-3.115v-7.763c0-1.005-.138-1.725-.415-2.161-.276-.435-.732-.654-1.369-.654-.402 0-.745.081-1.029.239a1.909 1.909 0 00-.691.654 2.836 2.836 0 00-.377.967 5.834 5.834 0 00-.114 1.18v7.537h-3.114V28.472zM427.08 28.874h3.215v3.065h-3.215v-3.065zm.186 5.502h3.115v12.938h-3.115V34.376zM433.33 36.586c0-.469-.008-.896-.025-1.281a10.106 10.106 0 00-.076-.929h2.914c.033.184.058.456.076.817.016.36.025.757.025 1.193h.075c.117-.268.272-.536.465-.805a3.52 3.52 0 01.691-.716c.268-.209.591-.377.967-.503.377-.126.817-.188 1.319-.188.804 0 1.494.18 2.072.54a4.22 4.22 0 011.407 1.444c.36.604.628 1.306.804 2.111.176.804.264 1.658.264 2.563 0 2.127-.393 3.773-1.18 4.936-.788 1.164-1.884 1.746-3.291 1.746a4.02 4.02 0 01-1.243-.176 3.372 3.372 0 01-1.646-1.144 4.102 4.102 0 01-.452-.741h-.05v7.285h-3.115V36.586zm3.115 4.296c0 .637.045 1.218.138 1.746.092.528.234.984.427 1.369.193.385.44.687.742.904.301.218.669.326 1.105.326.87 0 1.478-.389 1.821-1.167.343-.78.515-1.813.515-3.103 0-1.507-.155-2.633-.465-3.378-.31-.745-.917-1.118-1.821-1.118-.452 0-.838.118-1.155.352-.318.234-.574.553-.767.954s-.331.871-.415 1.407a11.16 11.16 0 00-.125 1.708z"/><g><path class="st0" d="M228.783 84.594V.055h1.001v84.539h-1.001zM77.778 44.707c0 2.602 1.691 3.793 3.884 3.793 3.058 0 3.756-2.019 3.756-3.942v-5.271c0-1.653-1.51-.979-1.51-1.589 0-.08.113-.157.162-.157.633 0 1.268.056 1.901.056.31 0 .601-.056.897-.056.081 0 .209.078.209.176 0 .444-.962.093-.962 1.584v5.046c0 .8.197 4.818-4.533 4.818-4.275 0-5.086-2.392-5.086-4.897V38.78c0-.955-1.32-.568-1.32-1.081 0-.111.278-.157.359-.157.423 0 .83.056 1.268.056.522 0 1.04-.056 1.544-.056.083 0 .521-.033.521.157 0 .444-1.088 0-1.088 1.165v5.843zM93.248 40.746c0-3.387-1.97-2.44-1.97-3.046 0-.095.164-.159.246-.159.26 0 .504.056.764.056.244 0 .505-.056.751-.056.178 0 .321.259.422.374l7.773 8.649c.097.114.16.179.193.179s.049-.048.049-.179v-6.809c0-2.135-1.808-1.515-1.808-2.055 0-.113.081-.159.178-.159.488 0 .961.056 1.484.056.551 0 1.25-.056 1.642-.056.097 0 .162.046.162.144 0 .424-.961.129-.961 1.318v9.435c0 .475-.018.702-.147.702-.113 0-.275-.082-.615-.456l-7.01-7.891c-.031-.033-.227-.309-.341-.309-.067 0-.112.046-.112.375v6.652c0 1.465 1.429.896 1.429 1.334 0 .079-.014.213-.178.213-.39 0-.847-.058-1.642-.058-.569 0-1.416.058-1.53.058-.197 0-.211-.101-.211-.182 0-.568 1.431.148 1.431-2.129v-6.001zM109.732 38.939c-.013-1.19-1.317-.865-1.317-1.218 0-.149.032-.18.162-.18.603 0 1.188.056 1.79.056.501 0 1.008-.056 1.512-.056.264 0 .312.031.312.159 0 .391-1.175.02-1.175 1.239v8.736c0 1.107 1.452.733 1.452 1.218 0 .118-.05.166-.325.166-.376 0-1.078-.058-1.776-.058-.992 0-1.334.058-1.561.058-.292 0-.343-.082-.343-.246 0-.471 1.269.064 1.269-1.545v-8.329zM117.564 38.802c-.411-.979-1.257-.668-1.257-1.029 0-.148.082-.23.229-.23.505 0 1.01.05 1.497.05.442 0 1.057-.05 1.285-.05.097 0 .231.066.231.166.016.229-.67.248-.67.832 0 .227.084.487.147.635l2.851 6.712c.355.863.473 1.237.651 1.237.16 0 .211-.26.294-.455l2.833-6.989c.098-.246.291-.765.227-1.108 0-.751-1.043-.44-1.043-.817 0-.163.081-.213.244-.213.356 0 .716.05 1.072.05.784 0 1.027-.05 1.253-.05.182 0 .28.066.28.213 0 .363-.459-.047-.914 1.046l-4.052 9.593c-.179.405-.294.945-.536.945-.26 0-.457-.684-.602-1.026l-4.02-9.512zM146.997 38.672c0-.635.347-.605.93-.605 1.598 0 3.123.67 3.123 2.654 0 2.02-1.571 2.313-2.27 2.313-.767 0-1.782.08-1.782-.228v-4.134zm3.216 4.492c1.143-.456 2.054-1.546 2.054-2.818 0-3.134-3.604-2.805-3.862-2.805-.851 0-1.782.056-2.721.056-.83 0-.748-.056-1.041-.056-.198 0-.325.093-.325.189 0 .552 1.4-.111 1.4 1.446v8.28c0 1.239-1.189 1.007-1.189 1.418 0 .098.067.181.161.181.619 0 1.241-.053 1.858-.053 1.352 0 1.724.053 1.872.053.133 0 .274.032.274-.131 0-.559-1.697-.05-1.697-1.452v-3.427c0-.167-.093-.456.428-.456 1.827 0 1.583-.052 2.168.861l1.811 2.844c.618.928 1.255 1.76 2.442 1.76.146 0 1.059 0 1.059-.197 0-.394-.798.211-1.969-1.581l-2.723-4.112zM158.053 46.167c-.062-.327.018-.509.18-.509.234 0 .234.196.32.54.193.751 1.17 2.445 3.416 2.445 1.56 0 3.082-.865 3.082-2.573 0-3.137-6.637-1.38-6.637-5.628 0-2.068 1.74-3.067 3.623-3.067 1.983 0 2.522.592 2.753.592.148 0 .18-.18.342-.18.095 0 .176.052.195.231l.239 2.213c.015.131-.016.243-.176.243-.178 0-.291-.341-.339-.489-.492-1.398-1.689-2.115-3.127-2.115-1.298 0-2.672.618-2.672 2.115 0 3.059 6.638 1.27 6.638 5.762 0 1.365-.952 3.418-4.672 3.418-1.215 0-2.696-.605-2.757-.9l-.408-2.098zM172.108 38.939c-.018-1.19-1.321-.865-1.321-1.218 0-.149.035-.18.166-.18.602 0 1.189.056 1.787.056.505 0 1.011-.056 1.514-.056.262 0 .312.031.312.159 0 .391-1.174.02-1.174 1.239v8.736c0 1.107 1.45.733 1.45 1.218 0 .118-.05.166-.326.166-.376 0-1.075-.058-1.776-.058-.992 0-1.333.058-1.557.058-.296 0-.344-.082-.344-.246 0-.471 1.27.064 1.27-1.545v-8.329zM183.335 39.181c0-.117.067-.733-.163-.749h-2.655c-1.015 0-1.044.242-1.341 1.138-.052.163-.061.374-.274.374-.098 0-.169-.116-.169-.198l.181-1.575c.02-.195 0-.631.296-.631 1.272 0 2.527.056 4.627.056 2.946 0 4.444-.056 4.768-.056.38 0 .461.093.481.468l.078 1.302c.017.159.035.358-.18.358-.605 0 .281-1.237-1.385-1.237h-2.333c-.731 0-.648-.067-.648.796v8.298c0 1.366 1.318.829 1.318 1.335 0 .048.015.197-.148.197-.391 0-.846-.058-1.318-.058-1.822 0-2.131.058-2.229.058-.148 0-.196-.047-.196-.213 0-.391 1.289-.227 1.289-1.206v-8.457zM193.418 38.565c-.422-.7-1.222-.505-1.222-.78 0-.114.098-.244.211-.244.439 0 .752.052 1.855.052.539 0 .978-.052 1.144-.052.111 0 .306.015.306.163 0 .276-.761.291-.761.764 0 .26.191.523.289.666l1.972 3.14c.131.196.228.294.324.294.081 0 .178-.115.307-.328l1.678-2.714c.115-.18.343-.456.343-.895 0-.799-1.222-.457-1.222-.846 0-.213.163-.244.346-.244.389 0 .796.052 1.189.052.47 0 .942-.052 1.413-.052.098 0 .18.111.18.193 0 .181-.276.246-.391.313-.439.259-.652.715-.913 1.12l-2.275 3.547c-.265.405-.394.49-.394.732v3.985c0 1.415 1.335.957 1.335 1.462 0 .148-.142.166-.372.166-.246 0-1.187-.058-1.789-.058-.735 0-1.32.058-1.465.058-.154 0-.246-.018-.246-.197 0-.454 1.255-.031 1.255-1.187v-3.938c0-.309-.244-.633-.378-.828l-2.719-4.344zM134.03 42.192c0 .557-.033.557.617.557h1.754c1.687 0 1.254-1.307 1.637-1.307.126 0 .174.181.174.311 0 .571-.03 1.126-.03 1.653 0 .422.03.846.03 1.28 0 .146-.063.213-.174.213-.495 0 .05-1.431-1.31-1.431h-2.403c-.346 0-.296.278-.296.52v2.99c0 .955-.132 1.348 1.236 1.348 3.743 0 4.296-1.676 4.511-1.676.113 0 .131.165.131.198 0 .582-.425 1.151-.817 1.573-.518.577-.878.545-1.585.545-1.235 0-2.468-.091-3.704-.057-.65.015-1.334.057-1.986.057-.144 0-.242-.031-.242-.161.031-.191.197-.161.714-.417.424-.193.459-.651.459-1.41v-7.431c0-.737 0-1.522-.881-1.654-.132-.031-.489-.062-.489-.246 0-.131.1-.194.574-.194 3.066 0 3.913.049 4.596.049.328 0 1.813-.049 2.316-.049.132 0 .165.163.165.362 0 1.812-.23 1.94-.326 1.94-.393 0-.129-.781-.393-1.154-.414-.557-2.102-.457-2.752-.457-1.561 0-1.528-.065-1.528 1.028v3.02z"/><g><path class="st0" d="M143.278 3.086c7.658 0 12.487 6.947 12.487 14.088 0 7.261-4.595 11.851-10.329 11.851-7.774 0-12.524-7.022-12.524-14.283-.001-6.201 3.77-11.656 10.366-11.656zm.513 27.127c8.753 0 14.825-5.7 14.825-14.529 0-8.123-6.155-13.898-14.16-13.898-8.052 0-14.398 5.931-14.398 14.097 0 8.277 5.206 14.33 13.733 14.33zM166.542 4.846c0-1.485.797-1.409 2.171-1.409 3.746 0 7.288 1.561 7.288 6.213 0 4.722-3.656 5.409-5.304 5.409-1.793 0-4.155.187-4.155-.534V4.846zm7.513 10.514c2.68-1.058 4.819-3.616 4.819-6.586 0-7.359-8.441-6.598-9.053-6.598-1.99 0-4.151.156-6.343.156-1.948 0-1.757-.156-2.44-.156-.459 0-.757.229-.757.459 0 1.298 3.272-.268 3.272 3.394v19.39c0 2.9-2.785 2.365-2.785 3.324 0 .228.16.42.381.42 1.448 0 2.889-.155 4.329-.155 3.162 0 4.036.155 4.383.155.302 0 .645.078.645-.305 0-1.3-3.964-.115-3.964-3.402v-8.053c0-.382-.231-1.07.984-1.07 4.279 0 3.709-.113 5.081 2.022l4.238 6.682c1.454 2.175 2.939 4.125 5.716 4.125.346 0 3.364 0 3.364-.459 0-.92-2.753.496-5.497-3.706l-6.373-9.637zM185.185 4.572c-.989-1.641-2.857-1.182-2.857-1.829 0-.268.23-.574.5-.574 1.028 0 1.746.164 4.338.164 1.255 0 2.283-.164 2.664-.164.267 0 .72.042.72.383 0 .647-1.785.682-1.785 1.791 0 .61.456 1.218.683 1.561l4.595 7.362c.302.456.531.687.759.687.183 0 .411-.269.713-.763l3.923-6.37c.265-.416.802-1.067.802-2.096 0-1.868-2.853-1.071-2.853-1.982 0-.496.374-.574.794-.574.913 0 1.868.164 2.779.164 1.103 0 2.205-.164 3.305-.164.232 0 .422.271.422.457 0 .422-.641.573-.913.727-1.022.61-1.52 1.677-2.131 2.632l-5.327 8.312c-.611.952-.913 1.144-.913 1.715v9.342c0 3.319 3.125 2.251 3.125 3.433 0 .342-.348.381-.876.381-.574 0-2.785-.167-4.179-.167-1.703 0-3.077.167-3.42.167-.341 0-.57-.039-.57-.457 0-1.068 2.931-.076 2.931-2.784v-9.229c0-.723-.57-1.487-.872-1.944l-6.357-10.181zM125.717 25.643c.189 3.198 3.005 1.788 3.005 3.122 0 .381-.498.381-.912.381-.726 0-2.058-.169-3.572-.169-1.176 0-2.396.169-3.294.169-.34 0-.419-.191-.419-.343 0-1.143 2.4-.305 2.358-3.12l-1.037-14.768c0-.953-.189-1.487-.418-1.487-.271 0-.616.343-.998 1.143l-7.884 16.063c-.192.341-.799 1.903-1.183 1.903-.382 0-.646-.839-.763-1.105l-8.113-16.975c-.119-.306-.309-.419-.462-.419-.112 0-.228.191-.259.572l-1.115 13.36c-.193 5.06 3.418 3.385 3.418 4.759 0 .381-.419.418-.955.418-.494 0-2.205-.169-3.326-.169-1.98 0-2.627.169-3.363.169-.273 0-.383-.191-.383-.457 0-1.297 2.432.267 2.698-3.696.463-6.219.918-10.261.918-14.3 0-8.962-2.949-6.827-2.949-8.123 0-.341.299-.42.643-.42.684 0 1.37.166 2.096.166.682 0 1.361-.166 2.031-.166.536 0 .611.647.802 1.068l9.091 19.371c.425.801.573 1.144.846 1.144.19 0 .566-.8 1.181-2.06l9.088-18.227c.219-.419.526-1.334.977-1.296.382 0 1.595.166 1.78.166.881 0 1.222-.166 1.829-.166.231 0 .383.229.383.456 0 1.221-3.049-.417-2.893 4.121l1.154 18.915zM79.414 13.29c0 1.297-.073 1.297 1.444 1.297h4.107c3.945 0 2.929-3.054 3.83-3.054.303 0 .413.419.413.724 0 1.339-.05 2.632-.05 3.838 0 .991.05 1.984.05 3.013 0 .344-.148.494-.413.494-1.171 0 .115-3.356-3.068-3.356H80.1c-.801 0-.685.652-.685 1.223v7.016c0 2.251-.3 3.165 2.891 3.165 8.768 0 10.061-3.928 10.556-3.928.264 0 .3.382.3.456 0 1.373-.986 2.707-1.895 3.703-1.22 1.384-2.058 1.309-3.716 1.309-2.892 0-5.775-.234-8.664-.159-1.515.042-3.112.159-4.626.159-.345 0-.572-.08-.572-.387.072-.462.457-.387 1.674-1.003.985-.456 1.067-1.524 1.067-3.315V7.105c0-1.718 0-3.551-2.058-3.858-.303-.075-1.139-.15-1.139-.592 0-.304.227-.457 1.329-.457 7.17 0 9.148.162 10.746.162.758 0 4.246-.162 5.427-.162.301 0 .376.381.376.836 0 4.234-.531 4.54-.758 4.54-.917 0-.306-1.832-.917-2.707-.98-1.298-4.925-1.071-6.447-1.071-3.647 0-3.573-.153-3.573 2.403v7.091z"/></g><g><path class="st0" d="M23.996 51.472C-1.018 39.902 1.981 14.064 1.993 1.983l44.264.045c-.011 12.083 2.774 37.929-22.261 49.444zM1.989 0L.082 2.005C.059 3.45.029 5.265.017 6.159c-.185 14.19.78 36.263 23.868 46.94 12.217-5.66 21.462-15.385 23.889-30.47 1.416-8.735.567-17.031.577-22.609L1.989 0z"/><path class="st0" d="M14.54 31.717c-1.773 1.899-3.524 3.77-4.115 4.401-.136.145-.149.295-.068.384.123.135.287.306.354.317.109.025.188.072.377-.131a651.11 651.11 0 014.329-4.185s-.232-.118-.435-.296c-.203-.185-.442-.49-.442-.49zM15.727 31.214c.451.437 1.189.86 1.189.86l-.407.39c-.152.167-.725-.098-1.278-.587-.55-.494-.873-1.033-.718-1.199l.45-.408s.314.51.764.944zM35.948 36.093c.362-.367.382-.705.382-.705l.402.196c.116.124.019.59-.354.953-.372.364-.875.487-.995.36l-.213-.43s.399.005.778-.374zM35.341 35.441c.237-.215.319-.504.319-.504l.261.18c.086.091.008.384-.263.647-.272.268-.641.357-.727.265l-.152-.284c-.002 0 .323-.087.562-.304zM36.574 15.236l-.47.416c-.642.247-2.106-.872-3.258-1.88-.771-.676-2.314-2.378-1.875-3.067l.193-.198a8.841 8.841 0 00-.348-.203.828.828 0 00-.494-.093c-.182.02-.33.099-.345.247-.033.309.144.715.391 1.198.243.485 1.205 1.879 3.138 3.42.882.705 1.895 1.139 2.625 1.406.131.049.59.144.79-.053.203-.203-.022-.559-.176-.9a2.271 2.271 0 00-.171-.293zM16.499 8.021c-.002.143-.002.305-.002.471 0 .469.428 4.355 2.671 7.158 1.934 2.417 7.782 9.385 8.712 10.491.873 1.036 6.608 7.743 7.329 8.593.03.037.068.081.074.091a.839.839 0 01-.248.32c-.183.144-.376.158-.376.158a2.648 2.648 0 01-.175-.176c-.209-.242-10.115-10.151-11.081-11.085-.965-.932-6.064-5.871-8.17-7.219-1.821-1.164-2.65-1.817-4.652-1.985 0 0-1.422-.051-1.517-.122-.02-.012.006-.075.042-.089.88-.36 2.807-1.481 4.326-2.927 2.133-2.021 2.811-3.439 2.916-3.658.026-.056.151-.068.151-.021zm1.397 8.394c-2.059-2.045-2.843-2.521-3.769-2.921-.481-.207-.961-.363-1.102-.309-.405.152-1.01.418-1.386.749-.271.242-.246.356-.099.436.149.08 1.194.308 2.145.817 1.671.89 4.801 3.072 11.628 10.129 3.469 3.587 8.93 9.136 8.93 9.136l.138-.111s-7.942-8.908-14.141-15.498a102.342 102.342 0 00-2.344-2.428z"/><path class="st0" d="M11.781 12.185c-.905.758-2.035 1.455-3.037 1.862-.63.259-1.52-.029-.88-1.247.193-.367.47-.826.85-1.329 1.19-1.583 3.324-3.534 5.393-4.652.628-.34 1.209-.559 1.471-.544.51.03.538.462.446.868-.207.897-1.7 2.906-4.243 5.042zm.631-1.161c.226-.197 1.052-1.036 1.748-1.854.732-.862 1.119-1.631 1.119-1.631s.11-.241.093-.407c-.016-.131-.15-.182-.201-.229-.078-.069-1.863.739-2.65 1.473-.095.09-.265.451-.345.715-.068.224.522.856.133 1.815-.055.133.071.148.103.118zM23.249 24.609c-.414.393-6.853 6.569-6.853 6.569.093.093.366.291.366.291s5.91-5.68 6.351-6.09c.12-.112.38-.353.476-.434l-.34-.336zM35.385 16.997c.091-.01.188-.016.272-.021.094-.005.223-.028.244-.049.055-.041.09-.103-.016-.106-.306-.01-.85-.162-1.472-.455-.382.102-1.003.27-1.736.596-.928.415-2.961 1.634-7.122 5.451l.325.379c1.443-1.301 3.372-3.004 4.421-3.69 1.857-1.212 3.204-1.757 4.107-1.971.268-.064.669-.111.977-.134z"/><g><path class="st0" d="M31.331 13.966c-1.143-1.19-1.505-2.045-1.688-2.673-.007-.024-.016-.045-.022-.06-.006-.009-.055-.02-.067.027a.329.329 0 00-.018.077c-.1 1.229.011 1.745-.507 3-.433 1.048-1.195 2.383-2.242 3.6-.605.707-1.631 1.867-2.576 2.944l.663.786c.064-.076.275-.297.517-.555 3.174-3.394 5.937-5.498 6.929-6.225a12.26 12.26 0 01-.989-.921zM21.925 23.396c-1.341 1.513-2.687 3.003-3.077 3.437-.33.368-3.259 3.516-3.259 3.516s.069.128.162.23c.09.102.244.24.244.24s6.143-6.305 6.609-6.791l-.679-.632z"/></g><path class="st0" d="M32.452 9.799c0-.048.005-.09.008-.137-.32-.088-.566-.073-.694.065-.402.436.491 1.914 1.994 3.309 1.503 1.392 3.049 2.17 3.449 1.735.162-.175.112-.518-.101-.96-2.184.253-4.656-2.613-4.656-4.012z"/><path class="st0" d="M39.226 10.358c-.211.244-.574.813-.792 1.006.235-.207.368-.714.113-2.041-.181-.929-.295-1.238-.418-1.543-.068-.175-.174-.131-.298.004-.118.132-.399.614-.406.643-.028.113.002.007-.433-1.337-.275-.854-.39-1.45-.378-1.751l.022-.443c.007-.104-.053-.104-.324.015-.144.062-1.296.862-1.772 2.068-.274.698-.295 1.274-.338.922-.082-.684-.07-.674-.139-.652-.381.125-1.711.73-1.713 2.528-.002 1.533 2.88 4.78 5.221 4.045 0 0 1.776-.339 1.809-1.939.034-1.602-.154-1.525-.154-1.525zm-.582 1.987c-.09.162-.417.579-.922.801-.555.244-1.298.281-1.68.162-1.729-.534-2.766-2.296-2.766-2.296-1.36-2.202.464-3.142.617-3.173 0 0-.193.719-.071 1.21.106.441.366.779.449 1.023.169.486-.062.823-.175.98-.062.083.099.037.136.013.025-.02.045-.045.104-.087.251-.188.481-.479.408-.786-.158-.679-.648-1.105-.069-2.51.354-.853 1.175-1.698 1.253-1.749.128-.088.213-.199.216-.108.002.093.15.725.225 1.134.076.408.55 1.241.448 2.395-.104 1.153-1.991 2.418-2.251 2.498a1.063 1.063 0 00-.252.136c-.067.065.03.08.076.087.099.02.902-.172 1.546-.621.539-.376 1.053-.941 1.231-1.278.33-.619.491-1.479.522-1.56.055-.134.111-.128.127-.057.018.07.151.576.202.834.028.143.11.542.112.983.006.866-.246 1.268-.758 1.655-.289.223-.608.305-.956.34l-.121.02c-.049.009-.094.024.013.076.027.014.072.026.121.051.288.13.893.116 1.282-.124.178-.111.418-.281.741-.596.121-.115.286-.332.302-.26.023.101.056.492-.11.807z"/></g></g><g><path class="st0" d="M248.762 70.249c0-1.188.145-2.212.436-3.072.291-.859.68-1.564 1.166-2.114a4.603 4.603 0 011.688-1.224 5.116 5.116 0 013.962 0 4.62 4.62 0 011.688 1.224c.486.55.875 1.254 1.166 2.114.291.86.436 1.884.436 3.072 0 1.188-.145 2.212-.436 3.071-.291.861-.68 1.565-1.166 2.114-.487.55-1.05.957-1.688 1.223a5.106 5.106 0 01-3.962 0 4.589 4.589 0 01-1.688-1.223c-.487-.55-.876-1.254-1.166-2.114-.291-.859-.436-1.883-.436-3.071zm2.503 0c0 .91.072 1.681.218 2.314.145.631.342 1.141.588 1.526.246.386.541.667.881.844.342.177.702.265 1.081.265s.739-.088 1.08-.265c.342-.178.635-.458.881-.844.247-.385.443-.894.588-1.526.145-.632.218-1.403.218-2.314 0-.91-.073-1.68-.218-2.314-.145-.631-.341-1.141-.588-1.526-.246-.385-.54-.667-.881-.844a2.33 2.33 0 00-2.161 0c-.341.178-.635.459-.881.844-.246.385-.443.894-.588 1.526-.146.634-.218 1.404-.218 2.314zM262.277 68.827h-1.63v-1.725h1.63v-1.991c0-.354.044-.692.132-1.015a2.09 2.09 0 01.465-.853c.221-.246.512-.446.872-.598.36-.152.805-.228 1.337-.228.316 0 .619.026.91.076.291.052.55.102.778.152l-.095 1.707a7.551 7.551 0 00-.436-.105 2.464 2.464 0 00-.493-.047c-.342 0-.614.111-.816.331-.203.222-.304.515-.304.881v1.689h1.782v1.725h-1.782v8.039h-2.351v-8.038zM286.597 76.62a7.319 7.319 0 01-1.004.275 6.419 6.419 0 01-1.308.123c-.809 0-1.502-.132-2.077-.398a3.947 3.947 0 01-1.422-1.08 4.442 4.442 0 01-.825-1.593c-.177-.606-.266-1.257-.266-1.952s.092-1.349.275-1.962a4.37 4.37 0 01.854-1.603 4.04 4.04 0 011.469-1.08c.594-.266 1.302-.398 2.124-.398.367 0 .745.044 1.138.132.392.088.694.177.91.266l-.133 1.857c-.215-.1-.461-.205-.739-.313a2.537 2.537 0 00-.91-.161c-.898 0-1.549.285-1.953.854-.405.568-.606 1.378-.606 2.427 0 .455.054.878.161 1.27.107.392.271.733.492 1.024.221.291.5.518.835.682.334.164.73.246 1.185.246.29 0 .6-.053.929-.161.329-.106.575-.212.74-.313l.131 1.858zM295.077 76.392a17.78 17.78 0 01-1.118.389c-.493.158-1.093.237-1.802.237-.784 0-1.46-.132-2.028-.398-.569-.265-1.037-.618-1.403-1.061s-.638-.961-.815-1.555a6.506 6.506 0 01-.266-1.877c0-.732.092-1.413.275-2.038a5.121 5.121 0 01.796-1.64 3.767 3.767 0 011.27-1.1 3.512 3.512 0 011.678-.398c.53 0 1.029.085 1.498.256.468.17.881.458 1.241.863.36.405.644.939.854 1.602.208.664.313 1.495.313 2.494v.455h-5.65c0 .834.186 1.488.559 1.962.372.474 1.014.711 1.924.711.721 0 1.274-.085 1.659-.256.386-.17.686-.338.901-.502l.114 1.856zm-1.782-5.251c0-1.732-.543-2.598-1.63-2.598-.304 0-.567.076-.787.228a1.887 1.887 0 00-.55.587c-.145.241-.25.518-.313.835a4.754 4.754 0 00-.094.948h3.374zM300.812 71.974c0-.998.13-1.82.389-2.464.259-.644.597-1.156 1.015-1.535.417-.38.881-.645 1.393-.797a5.316 5.316 0 011.507-.227c.493 0 .996.076 1.508.227.511.152.973.418 1.384.797.41.379.745.891 1.004 1.535.259.644.389 1.466.389 2.464 0 1.024-.13 1.862-.389 2.513-.259.652-.594 1.166-1.004 1.546a3.3 3.3 0 01-1.384.777 5.74 5.74 0 01-1.508.208c-.493 0-.995-.069-1.507-.208a3.355 3.355 0 01-1.393-.777c-.418-.38-.755-.894-1.015-1.546-.26-.651-.389-1.489-.389-2.513zm2.427 0c0 .405.025.809.076 1.215.05.404.148.767.293 1.09.145.322.338.581.579.777.24.196.55.294.929.294.38 0 .689-.098.929-.294.24-.195.43-.455.568-.777.139-.322.234-.686.284-1.09a9.703 9.703 0 000-2.428 3.845 3.845 0 00-.284-1.081 2.035 2.035 0 00-.568-.767c-.241-.195-.55-.293-.929-.293s-.689.098-.929.293a2.121 2.121 0 00-.579.767 3.67 3.67 0 00-.293 1.081c-.051.405-.076.81-.076 1.213zM311.823 68.827h-1.63v-1.725h1.63v-1.991c0-.354.044-.692.132-1.015a2.09 2.09 0 01.465-.853c.221-.246.512-.446.872-.598.36-.152.806-.228 1.337-.228.316 0 .619.026.91.076.291.052.55.102.778.152l-.095 1.707a7.551 7.551 0 00-.436-.105 2.456 2.456 0 00-.493-.047c-.342 0-.613.111-.816.331-.202.222-.303.515-.303.881v1.689h1.782v1.725h-1.782v8.039h-2.351v-8.038zM322.357 63.633h2.426v13.233h-2.426V63.633zM327.126 68.714c0-.304-.006-.594-.019-.872a10.293 10.293 0 00-.056-.739h2.2c.012.252.028.502.047.748.018.246.029.496.029.749h.038c.088-.151.199-.322.331-.512.132-.189.3-.369.503-.541.202-.17.445-.313.73-.426.284-.114.629-.17 1.033-.17.556 0 1.017.094 1.384.283.367.191.661.453.882.787.22.335.379.721.474 1.157.094.436.142.9.142 1.393v6.294h-2.351v-5.858c0-.758-.105-1.302-.313-1.63s-.554-.493-1.033-.493c-.304 0-.563.061-.778.181-.215.12-.389.284-.521.493a2.113 2.113 0 00-.284.73 4.438 4.438 0 00-.086.891v5.688h-2.351v-8.153zM337.807 68.827h-1.63v-1.725h1.63v-1.991c0-.354.044-.692.132-1.015a2.09 2.09 0 01.465-.853c.221-.246.512-.446.872-.598.36-.152.806-.228 1.337-.228.316 0 .619.026.91.076.291.052.55.102.778.152l-.095 1.707a7.551 7.551 0 00-.436-.105 2.456 2.456 0 00-.493-.047c-.342 0-.613.111-.816.331-.202.222-.303.515-.303.881v1.689h1.782v1.725h-1.782v8.039h-2.351v-8.038zM342.983 71.974c0-.998.13-1.82.389-2.464.259-.644.597-1.156 1.015-1.535.417-.38.881-.645 1.393-.797a5.316 5.316 0 011.507-.227c.493 0 .995.076 1.507.227.512.152.973.418 1.384.797.411.379.746.891 1.005 1.535.258.644.389 1.466.389 2.464 0 1.024-.131 1.862-.389 2.513-.259.652-.594 1.166-1.005 1.546a3.294 3.294 0 01-1.384.777 5.734 5.734 0 01-1.507.208c-.493 0-.995-.069-1.507-.208a3.355 3.355 0 01-1.393-.777c-.418-.38-.755-.894-1.015-1.546-.259-.651-.389-1.489-.389-2.513zm2.427 0c0 .405.025.809.076 1.215.05.404.148.767.293 1.09.145.322.338.581.579.777.24.196.55.294.929.294.38 0 .689-.098.929-.294.24-.195.43-.455.568-.777.139-.322.234-.686.284-1.09a9.703 9.703 0 000-2.428 3.845 3.845 0 00-.284-1.081 2.035 2.035 0 00-.568-.767c-.241-.195-.55-.293-.929-.293s-.689.098-.929.293a2.121 2.121 0 00-.579.767 3.67 3.67 0 00-.293 1.081c-.051.405-.076.81-.076 1.213zM353.145 68.714c0-.304-.006-.594-.019-.872a10.293 10.293 0 00-.056-.739h2.124c.012.291.028.587.047.891.019.304.029.6.029.891h.038a5.56 5.56 0 01.303-.626c.127-.227.291-.435.493-.626.202-.189.442-.35.72-.483.278-.132.6-.198.967-.198.076 0 .145.006.209.019l.189.038v2.199a2.473 2.473 0 00-.663-.094c-.241 0-.48.041-.721.124-.24.081-.458.215-.654.398-.196.183-.355.43-.474.739-.12.31-.181.692-.181 1.147v5.346h-2.351v-8.154zM359.828 68.695c0-.354-.006-.664-.019-.929a7.517 7.517 0 00-.056-.663h2.351c.012.252.029.508.047.767.019.259.029.516.029.768h.038c.088-.189.206-.385.351-.587.145-.203.316-.383.512-.541.195-.158.427-.291.692-.398.266-.107.569-.161.91-.161.418 0 .765.056 1.043.17.278.113.512.25.701.407.19.158.339.33.446.512.107.183.199.338.275.465.114-.164.246-.338.398-.521a2.926 2.926 0 011.261-.882c.271-.102.591-.152.957-.152.53 0 .977.091 1.337.274.36.183.647.443.863.778.215.335.369.742.464 1.223a8.33 8.33 0 01.143 1.612v6.029h-2.351v-6.162c0-.606-.097-1.061-.293-1.365-.196-.304-.515-.455-.957-.455a1.36 1.36 0 00-.692.17c-.196.115-.36.267-.493.455-.133.19-.234.411-.304.664a2.941 2.941 0 00-.105.777v5.916h-2.351v-6.162c0-.606-.098-1.061-.293-1.365-.196-.304-.516-.455-.958-.455-.265 0-.496.057-.692.17-.196.115-.36.267-.493.455a2.14 2.14 0 00-.303.664 2.9 2.9 0 00-.105.777v5.916h-2.351v-8.171zM375.114 67.671c.329-.152.74-.309 1.232-.474.493-.165 1.112-.246 1.858-.246.758 0 1.381.088 1.867.265.487.178.866.436 1.138.778a3 3 0 01.569 1.242c.106.486.161 1.033.161 1.64v4.266c0 .354.016.682.047.986.031.304.06.55.085.739h-2.124a2.41 2.41 0 01-.114-.626 13.275 13.275 0 01-.019-.701h-.038a4.35 4.35 0 01-1.062 1.043c-.417.29-.973.435-1.668.435-.38 0-.746-.063-1.1-.189a2.678 2.678 0 01-.929-.559 2.85 2.85 0 01-.644-.902 2.85 2.85 0 01-.246-1.213c0-.657.13-1.201.389-1.631.258-.43.616-.77 1.071-1.024.455-.252.995-.426 1.621-.52a13.743 13.743 0 012.057-.143h.474v-.361c0-.239-.031-.474-.094-.701a1.553 1.553 0 00-.313-.597 1.55 1.55 0 00-.559-.407c-.228-.102-.512-.152-.854-.152-.291 0-.572.031-.843.094a5.155 5.155 0 00-.759.237 4.001 4.001 0 00-.625.313 5.126 5.126 0 00-.446.304l-.132-1.896zm4.62 4.418h-.208c-1.012 0-1.799.13-2.361.389-.563.259-.843.742-.843 1.45 0 .443.135.804.407 1.081.271.278.635.417 1.091.417.707 0 1.203-.246 1.488-.739.284-.493.427-1.176.427-2.048v-.55zM384.733 65.092l2.351-.72v2.731h1.953v1.725h-1.953v5.062c0 .53.092.888.275 1.071.183.183.446.275.787.275.215 0 .395-.021.541-.066.145-.044.262-.093.351-.143v1.668a3.085 3.085 0 01-.655.228 3.932 3.932 0 01-.919.094c-.872 0-1.545-.218-2.019-.654-.474-.437-.711-1.166-.711-2.19v-5.346h-1.554v-1.725h1.554v-2.01zM390.834 62.95h2.426v2.313h-2.426V62.95zm.038 4.153h2.351v9.763h-2.351v-9.763zM394.976 71.974c0-.998.13-1.82.389-2.464.259-.644.597-1.156 1.015-1.535.417-.38.881-.645 1.393-.797a5.316 5.316 0 011.507-.227c.493 0 .995.076 1.507.227.512.152.973.418 1.384.797.411.379.746.891 1.005 1.535.258.644.389 1.466.389 2.464 0 1.024-.131 1.862-.389 2.513-.259.652-.594 1.166-1.005 1.546a3.294 3.294 0 01-1.384.777 5.734 5.734 0 01-1.507.208c-.493 0-.995-.069-1.507-.208a3.355 3.355 0 01-1.393-.777c-.418-.38-.755-.894-1.015-1.546-.259-.651-.389-1.489-.389-2.513zm2.428 0c0 .405.025.809.076 1.215.05.404.148.767.293 1.09.145.322.338.581.579.777.24.196.55.294.929.294.38 0 .689-.098.929-.294.24-.195.43-.455.568-.777.139-.322.234-.686.284-1.09a9.703 9.703 0 000-2.428 3.845 3.845 0 00-.284-1.081 2.035 2.035 0 00-.568-.767c-.241-.195-.55-.293-.929-.293s-.689.098-.929.293a2.121 2.121 0 00-.579.767 3.67 3.67 0 00-.293 1.081 9.52 9.52 0 00-.076 1.213zM405.249 68.714c0-.304-.006-.594-.019-.872a10.293 10.293 0 00-.056-.739h2.2c.012.252.028.502.047.748s.029.496.029.749h.038c.088-.151.199-.322.331-.512.132-.189.3-.369.503-.541.202-.17.445-.313.73-.426.284-.114.629-.17 1.033-.17.556 0 1.017.094 1.384.283.367.191.661.453.882.787.22.335.379.721.474 1.157.094.436.142.9.142 1.393v6.294h-2.351v-5.858c0-.758-.105-1.302-.313-1.63-.208-.329-.554-.493-1.033-.493-.304 0-.563.061-.778.181-.215.12-.389.284-.521.493a2.113 2.113 0 00-.284.73 4.438 4.438 0 00-.086.891v5.688h-2.351v-8.153zM421.383 65.566h-2.958v-1.933h8.324v1.933h-2.939v11.3h-2.426v-11.3zM433.986 76.392a17.78 17.78 0 01-1.118.389c-.493.158-1.093.237-1.802.237-.783 0-1.46-.132-2.028-.398a3.957 3.957 0 01-1.403-1.061 4.34 4.34 0 01-.816-1.555 6.54 6.54 0 01-.266-1.877c0-.732.092-1.413.275-2.038a5.142 5.142 0 01.796-1.64 3.777 3.777 0 011.27-1.1 3.515 3.515 0 011.678-.398c.53 0 1.03.085 1.498.256.468.17.881.458 1.241.863.36.405.645.939.854 1.602.208.664.313 1.495.313 2.494v.455h-5.65c0 .834.186 1.488.559 1.962.372.474 1.015.711 1.925.711.72 0 1.273-.085 1.659-.256.385-.17.685-.338.9-.502l.115 1.856zm-1.782-5.251c0-1.732-.543-2.598-1.63-2.598-.304 0-.566.076-.787.228a1.887 1.887 0 00-.55.587c-.145.241-.25.518-.313.835a4.83 4.83 0 00-.094.948h3.374zM442.908 76.62a7.377 7.377 0 01-1.005.275 6.405 6.405 0 01-1.308.123c-.809 0-1.501-.132-2.076-.398a3.93 3.93 0 01-1.422-1.08 4.442 4.442 0 01-.825-1.593c-.177-.606-.266-1.257-.266-1.952s.092-1.349.275-1.962a4.37 4.37 0 01.854-1.603 4.04 4.04 0 011.469-1.08c.594-.266 1.302-.398 2.124-.398.367 0 .745.044 1.137.132.393.088.695.177.911.266l-.133 1.857c-.215-.1-.461-.205-.74-.313a2.533 2.533 0 00-.91-.161c-.897 0-1.548.285-1.952.854-.405.568-.606 1.378-.606 2.427 0 .455.054.878.161 1.27.107.392.271.733.493 1.024.221.291.499.518.834.682.335.164.73.246 1.185.246.291 0 .601-.053.929-.161.329-.106.575-.212.74-.313l.131 1.858zM445.11 62.646h2.351v5.707h.057c.101-.152.218-.31.351-.474.132-.164.291-.316.474-.455.182-.139.405-.254.664-.342.258-.088.571-.132.938-.132.556 0 1.017.094 1.384.283.367.191.661.453.882.787.22.335.379.721.474 1.157.094.436.142.9.142 1.393v6.294h-2.351v-5.858c0-.758-.105-1.302-.313-1.63-.208-.329-.554-.493-1.033-.493-.304 0-.563.061-.778.181-.215.12-.389.284-.521.493a2.113 2.113 0 00-.284.73 4.438 4.438 0 00-.086.891v5.688h-2.351v-14.22zM455.063 68.714c0-.304-.006-.594-.019-.872a10.293 10.293 0 00-.056-.739h2.2c.012.252.028.502.047.748.018.246.029.496.029.749h.038c.088-.151.199-.322.331-.512.132-.189.3-.369.503-.541.202-.17.445-.313.73-.426.284-.114.629-.17 1.033-.17.556 0 1.017.094 1.384.283.367.191.661.453.882.787.22.335.379.721.474 1.157.094.436.142.9.142 1.393v6.294h-2.351v-5.858c0-.758-.105-1.302-.313-1.63s-.554-.493-1.033-.493c-.304 0-.563.061-.778.181-.215.12-.389.284-.521.493a2.113 2.113 0 00-.284.73 4.438 4.438 0 00-.086.891v5.688h-2.351v-8.153zM464.47 71.974c0-.998.13-1.82.389-2.464.259-.644.597-1.156 1.015-1.535.417-.38.881-.645 1.393-.797a5.316 5.316 0 011.507-.227c.493 0 .995.076 1.507.227.512.152.973.418 1.384.797.411.379.746.891 1.005 1.535.258.644.389 1.466.389 2.464 0 1.024-.131 1.862-.389 2.513-.259.652-.594 1.166-1.005 1.546a3.294 3.294 0 01-1.384.777 5.734 5.734 0 01-1.507.208c-.493 0-.995-.069-1.507-.208a3.355 3.355 0 01-1.393-.777c-.418-.38-.755-.894-1.015-1.546-.259-.651-.389-1.489-.389-2.513zm2.427 0c0 .405.025.809.076 1.215.05.404.148.767.293 1.09.145.322.338.581.579.777.24.196.55.294.929.294.38 0 .689-.098.929-.294.24-.195.43-.455.568-.777.139-.322.234-.686.284-1.09a9.703 9.703 0 000-2.428 3.845 3.845 0 00-.284-1.081 2.035 2.035 0 00-.568-.767c-.241-.195-.55-.293-.929-.293s-.689.098-.929.293a2.121 2.121 0 00-.579.767 3.67 3.67 0 00-.293 1.081c-.051.405-.076.81-.076 1.213zM474.958 62.646h2.351v14.22h-2.351v-14.22zM479.12 71.974c0-.998.13-1.82.389-2.464.259-.644.597-1.156 1.015-1.535.417-.38.881-.645 1.393-.797a5.316 5.316 0 011.507-.227c.493 0 .995.076 1.507.227.512.152.973.418 1.384.797.411.379.746.891 1.005 1.535.258.644.389 1.466.389 2.464 0 1.024-.131 1.862-.389 2.513-.259.652-.594 1.166-1.005 1.546a3.294 3.294 0 01-1.384.777 5.734 5.734 0 01-1.507.208 5.74 5.74 0 01-1.507-.208 3.355 3.355 0 01-1.393-.777c-.418-.38-.755-.894-1.015-1.546-.259-.651-.389-1.489-.389-2.513zm2.428 0c0 .405.025.809.076 1.215.05.404.148.767.293 1.09.145.322.338.581.579.777.24.196.55.294.929.294.38 0 .689-.098.929-.294.24-.195.43-.455.568-.777.139-.322.234-.686.284-1.09a9.703 9.703 0 000-2.428 3.845 3.845 0 00-.284-1.081 2.035 2.035 0 00-.568-.767c-.241-.195-.55-.293-.929-.293s-.689.098-.929.293a2.121 2.121 0 00-.579.767 3.67 3.67 0 00-.293 1.081c-.051.405-.076.81-.076 1.213zM489.801 78.383c.278.151.673.329 1.185.53a4.584 4.584 0 001.697.304c.555 0 1.001-.089 1.336-.265.335-.178.594-.408.778-.692.183-.285.306-.613.369-.986a6.66 6.66 0 00.095-1.129v-.929h-.038a6.544 6.544 0 01-.351.58 2.347 2.347 0 01-.503.53 2.54 2.54 0 01-.73.388 2.948 2.948 0 01-.995.152c-.342 0-.711-.066-1.11-.198-.398-.133-.767-.38-1.109-.741-.341-.359-.625-.855-.853-1.488-.228-.632-.342-1.441-.342-2.426 0-.67.063-1.311.19-1.925a4.905 4.905 0 01.617-1.612 3.38 3.38 0 011.09-1.109c.443-.278.986-.417 1.63-.417.355 0 .664.046.929.142.266.095.499.218.702.369.202.152.379.33.53.531s.291.411.418.626h.076c0-.254.009-.505.028-.759.019-.252.035-.505.048-.757h2.123a15.344 15.344 0 00-.075 1.535v7.204c0 .759-.066 1.461-.199 2.105-.132.644-.369 1.198-.711 1.659-.341.461-.803.821-1.384 1.08s-1.321.389-2.218.389c-.784 0-1.466-.076-2.048-.227a18.87 18.87 0 01-1.308-.38l.133-2.084zm1.858-6.503c0 .568.041 1.059.123 1.47.081.411.195.748.341 1.014.145.266.31.462.493.588.183.126.376.19.578.19.746 0 1.277-.268 1.593-.806.316-.537.474-1.361.474-2.474 0-1.024-.174-1.804-.521-2.342-.348-.537-.806-.799-1.375-.787-.619.013-1.059.292-1.318.835-.259.543-.388 1.314-.388 2.312zM503.421 74.477h.038l1.877-7.375h2.276l-3.014 9.859-.55 1.764a4.718 4.718 0 01-.389.939c-.158.283-.348.53-.569.739a2.444 2.444 0 01-.787.493c-.303.12-.651.181-1.042.181-.316 0-.601-.025-.854-.076s-.468-.107-.644-.17l.132-1.802c.14.051.279.095.418.132.139.039.297.057.474.057.354.013.622-.094.805-.322.183-.228.351-.594.503-1.1l.17-.834-3.242-9.859h2.427l1.971 7.374zM269.261 68.827h-1.63v-1.725h1.63v-1.991c0-.354.044-.692.133-1.015.088-.322.243-.606.464-.853.221-.246.512-.446.873-.598.36-.152.805-.228 1.336-.228.316 0 .619.026.91.076.291.052.55.102.778.152l-.094 1.707a7.972 7.972 0 00-.436-.105 2.47 2.47 0 00-.493-.047c-.341 0-.613.111-.815.331-.203.222-.304.515-.304.881v1.689h1.782v1.725h-1.782v8.039h-2.351v-8.038zM275.433 62.95h2.426v2.313h-2.426V62.95zm.038 4.153h2.351v9.763h-2.351v-9.763z"/></g></svg>